<svg id="mermaid-svg" width="699.7578125" xmlns="http://www.w3.org/2000/svg" height="273.1795654296875" viewBox="-191.7578125 -34.70000076293945 699.7578125 273.1795654296875" role="graphics-document document" aria-roledescription="gitGraph" xmlns:xlink="http://www.w3.org/1999/xlink"><style>#mermaid-svg{font-family:"trebuchet ms",verdana,arial,sans-serif;font-size:16px;fill:#333;}#mermaid-svg .error-icon{fill:#552222;}#mermaid-svg .error-text{fill:#552222;stroke:#552222;}#mermaid-svg .edge-thickness-normal{stroke-width:2px;}#mermaid-svg .edge-thickness-thick{stroke-width:3.5px;}#mermaid-svg .edge-pattern-solid{stroke-dasharray:0;}#mermaid-svg .edge-pattern-dashed{stroke-dasharray:3;}#mermaid-svg .edge-pattern-dotted{stroke-dasharray:2;}#mermaid-svg .marker{fill:#333333;stroke:#333333;}#mermaid-svg .marker.cross{stroke:#333333;}#mermaid-svg svg{font-family:"trebuchet ms",verdana,arial,sans-serif;font-size:16px;}#mermaid-svg .commit-id,#mermaid-svg .commit-msg,#mermaid-svg .branch-label{fill:lightgrey;color:lightgrey;font-family:'trebuchet ms',verdana,arial,sans-serif;font-family:var(--mermaid-font-family);}#mermaid-svg .branch-label0{fill:#ffffff;}#mermaid-svg .commit0{stroke:hsl(240, 100%, 46.2745098039%);fill:hsl(240, 100%, 46.2745098039%);}#mermaid-svg .commit-highlight0{stroke:hsl(60, 100%, 3.7254901961%);fill:hsl(60, 100%, 3.7254901961%);}#mermaid-svg .label0{fill:hsl(240, 100%, 46.2745098039%);}#mermaid-svg .arrow0{stroke:hsl(240, 100%, 46.2745098039%);}#mermaid-svg .branch-label1{fill:black;}#mermaid-svg .commit1{stroke:hsl(60, 100%, 43.5294117647%);fill:hsl(60, 100%, 43.5294117647%);}#mermaid-svg .commit-highlight1{stroke:rgb(0, 0, 160.5);fill:rgb(0, 0, 160.5);}#mermaid-svg .label1{fill:hsl(60, 100%, 43.5294117647%);}#mermaid-svg .arrow1{stroke:hsl(60, 100%, 43.5294117647%);}#mermaid-svg .branch-label2{fill:black;}#mermaid-svg .commit2{stroke:hsl(80, 100%, 46.2745098039%);fill:hsl(80, 100%, 46.2745098039%);}#mermaid-svg .commit-highlight2{stroke:rgb(48.8333333334, 0, 146.5000000001);fill:rgb(48.8333333334, 0, 146.5000000001);}#mermaid-svg .label2{fill:hsl(80, 100%, 46.2745098039%);}#mermaid-svg .arrow2{stroke:hsl(80, 100%, 46.2745098039%);}#mermaid-svg .branch-label3{fill:#ffffff;}#mermaid-svg .commit3{stroke:hsl(210, 100%, 46.2745098039%);fill:hsl(210, 100%, 46.2745098039%);}#mermaid-svg .commit-highlight3{stroke:rgb(146.5000000001, 73.2500000001, 0);fill:rgb(146.5000000001, 73.2500000001, 0);}#mermaid-svg .label3{fill:hsl(210, 100%, 46.2745098039%);}#mermaid-svg .arrow3{stroke:hsl(210, 100%, 46.2745098039%);}#mermaid-svg .branch-label4{fill:black;}#mermaid-svg .commit4{stroke:hsl(180, 100%, 46.2745098039%);fill:hsl(180, 100%, 46.2745098039%);}#mermaid-svg .commit-highlight4{stroke:rgb(146.5000000001, 0, 0);fill:rgb(146.5000000001, 0, 0);}#mermaid-svg .label4{fill:hsl(180, 100%, 46.2745098039%);}#mermaid-svg .arrow4{stroke:hsl(180, 100%, 46.2745098039%);}#mermaid-svg .branch-label5{fill:black;}#mermaid-svg .commit5{stroke:hsl(150, 100%, 46.2745098039%);fill:hsl(150, 100%, 46.2745098039%);}#mermaid-svg .commit-highlight5{stroke:rgb(146.5000000001, 0, 73.2500000001);fill:rgb(146.5000000001, 0, 73.2500000001);}#mermaid-svg .label5{fill:hsl(150, 100%, 46.2745098039%);}#mermaid-svg .arrow5{stroke:hsl(150, 100%, 46.2745098039%);}#mermaid-svg .branch-label6{fill:black;}#mermaid-svg .commit6{stroke:hsl(300, 100%, 46.2745098039%);fill:hsl(300, 100%, 46.2745098039%);}#mermaid-svg .commit-highlight6{stroke:rgb(0, 146.5000000001, 0);fill:rgb(0, 146.5000000001, 0);}#mermaid-svg .label6{fill:hsl(300, 100%, 46.2745098039%);}#mermaid-svg .arrow6{stroke:hsl(300, 100%, 46.2745098039%);}#mermaid-svg .branch-label7{fill:black;}#mermaid-svg .commit7{stroke:hsl(0, 100%, 46.2745098039%);fill:hsl(0, 100%, 46.2745098039%);}#mermaid-svg .commit-highlight7{stroke:rgb(0, 146.5000000001, 146.5000000001);fill:rgb(0, 146.5000000001, 146.5000000001);}#mermaid-svg .label7{fill:hsl(0, 100%, 46.2745098039%);}#mermaid-svg .arrow7{stroke:hsl(0, 100%, 46.2745098039%);}#mermaid-svg .branch{stroke-width:1;stroke:#333333;stroke-dasharray:2;}#mermaid-svg .commit-label{font-size:10px;fill:#000021;}#mermaid-svg .commit-label-bkg{font-size:10px;fill:#ffffde;opacity:0.5;}#mermaid-svg .tag-label{font-size:10px;fill:#131300;}#mermaid-svg .tag-label-bkg{fill:#ECECFF;stroke:hsl(240, 60%, 86.2745098039%);}#mermaid-svg .tag-hole{fill:#333;}#mermaid-svg .commit-merge{stroke:#ECECFF;fill:#ECECFF;}#mermaid-svg .commit-reverse{stroke:#ECECFF;fill:#ECECFF;stroke-width:3;}#mermaid-svg .commit-highlight-inner{stroke:#ECECFF;fill:#ECECFF;}#mermaid-svg .arrow{stroke-width:8;stroke-linecap:round;fill:none;}#mermaid-svg .gitTitleText{text-anchor:middle;font-size:18px;fill:#333;}#mermaid-svg :root{--mermaid-font-family:"trebuchet ms",verdana,arial,sans-serif;}</style><g/><g class="commit-bullets"/><g class="commit-labels"/><g><line x1="0" y1="0" x2="500" y2="0" class="branch branch0"/><rect class="branchLabelBkg label0" rx="4" ry="4" x="-69" y="-1.5" width="53" height="23" transform="translate(-19, -9.5)"/><g class="branchLabel"><g class="label branch-label0" transform="translate(-79, -10.5)"><text><tspan xml:space="preserve" dy="1em" x="0" class="row">main</tspan></text></g></g><line x1="0" y1="90" x2="500" y2="90" class="branch branch1"/><rect class="branchLabelBkg label1" rx="4" ry="4" x="-125.6953125" y="-1.5" width="109.6953125" height="23" transform="translate(-19, 80.5)"/><g class="branchLabel"><g class="label branch-label1" transform="translate(-135.6953125, 79.5)"><text><tspan xml:space="preserve" dy="1em" x="0" class="row">nice_feature</tspan></text></g></g><line x1="0" y1="180" x2="500" y2="180" class="branch branch2"/><rect class="branchLabelBkg label2" rx="4" ry="4" x="-164.7578125" y="-1.5" width="148.7578125" height="23" transform="translate(-19, 170.5)"/><g class="branchLabel"><g class="label branch-label2" transform="translate(-174.7578125, 169.5)"><text><tspan xml:space="preserve" dy="1em" x="0" class="row">very_nice_feature</tspan></text></g></g></g><g class="commit-arrows"><path d="M 10 0 L 10 0  10 0 L 60 0" class="arrow arrow0"/><path d="M 60 0 L 60 70 A 20 20, 0, 0, 0, 80 90 L 110 90" class="arrow arrow1"/><path d="M 60 0 L 60 0  60 0 L 160 0" class="arrow arrow0"/><path d="M 110 90 L 110 160 A 20 20, 0, 0, 0, 130 180 L 210 180" class="arrow arrow2"/><path d="M 160 0 L 160 0  160 0 L 260 0" class="arrow arrow0"/><path d="M 110 90 L 110 90  110 90 L 310 90" class="arrow arrow1"/><path d="M 260 0 L 260 0  260 0 L 360 0" class="arrow arrow0"/><path d="M 310 90 L 340 90 A 20 20, 0, 0, 0, 360 70 L 360 0" class="arrow arrow1"/><path d="M 210 180 L 210 180  210 180 L 410 180" class="arrow arrow2"/><path d="M 360 0 L 360 0  360 0 L 460 0" class="arrow arrow0"/></g><g class="commit-bullets"><circle cx="10" cy="0" r="10" class="commit 537dd67 commit0"/><circle cx="60" cy="0" r="10" class="commit 6639143 commit0"/><circle cx="110" cy="90" r="10" class="commit 937ded8 commit1"/><circle cx="160" cy="0" r="10" class="commit 9e6679c commit0"/><circle cx="210" cy="180" r="10" class="commit 7f4de03 commit2"/><circle cx="260" cy="0" r="10" class="commit 6df80c1 commit0"/><circle cx="310" cy="90" r="10" class="commit bd0ebb8 commit1"/><rect x="350" y="-10" height="20" width="20" class="commit 9ff61cc commit-highlight0 commit-highlight-outer"/><rect x="354" y="-6" height="12" width="12" class="commit 9ff61cc commit0 commit-highlight-inner"/><circle cx="410" cy="180" r="10" class="commit 370613b commit2"/><circle cx="460" cy="0" r="10" class="commit 9a07a97 commit0"/></g><g class="commit-labels"><g transform="translate(-25.7852734375, 22.960507812499998) rotate(-45, 0, 0)"><rect class="commit-label-bkg" x="-11.0595703125" y="13.5" width="42.119140625" height="15"/><text x="-9.0595703125" y="25" class="commit-label">537dd67</text></g><g transform="translate(-25.253125, 22.484375) rotate(-45, 50, 0)"><rect class="commit-label-bkg" x="39.640625" y="13.5" width="40.71875" height="15"/><text x="41.640625" y="25" class="commit-label">6639143</text></g><g transform="translate(-25.5796875, 22.7765625) rotate(-45, 100, 90)"><rect class="commit-label-bkg" x="89.2109375" y="103.5" width="41.578125" height="15"/><text x="91.2109375" y="115" class="commit-label">937ded8</text></g><g transform="translate(-25.23642578125, 22.46943359375) rotate(-45, 150, 0)"><rect class="commit-label-bkg" x="139.66259765625" y="13.5" width="40.6748046875" height="15"/><text x="141.66259765625" y="25" class="commit-label">9e6679c</text></g><g transform="translate(-24.8671875, 22.1390625) rotate(-45, 200, 180)"><rect class="commit-label-bkg" x="190.1484375" y="193.5" width="39.703125" height="15"/><text x="192.1484375" y="205" class="commit-label">7f4de03</text></g><g transform="translate(-24.6771875, 21.9690625) rotate(-45, 250, 0)"><rect class="commit-label-bkg" x="240.3984375" y="13.5" width="39.203125" height="15"/><text x="242.3984375" y="25" class="commit-label">6df80c1</text></g><g transform="translate(-25.8290625, 22.9996875) rotate(-45, 300, 90)"><rect class="commit-label-bkg" x="288.8828125" y="103.5" width="42.234375" height="15"/><text x="290.8828125" y="115" class="commit-label">bd0ebb8</text></g><g transform="translate(-23.8689453125, 21.2458984375) rotate(-45, 350, 0)"><rect class="commit-label-bkg" x="341.4619140625" y="13.5" width="37.076171875" height="15"/><text x="343.4619140625" y="25" class="commit-label">9ff61cc</text></g><polygon class="tag-label-bkg" points="           332.015625,-17.2           332.015625,-21.2           340.015625,-26.7           379.984375,-26.7           379.984375,-11.7           340.015625,-11.7"/><circle cx="336.015625" cy="-19.2" r="1.5" class="tag-hole"/><text y="-16" class="tag-label" x="344.015625">V 1.0.0</text><g transform="translate(-25.536640625, 22.738046875000002) rotate(-45, 400, 180)"><rect class="commit-label-bkg" x="389.267578125" y="193.5" width="41.46484375" height="15"/><text x="391.267578125" y="205" class="commit-label">370613b</text></g><g transform="translate(-25.5440625, 22.744687499999998) rotate(-45, 450, 0)"><rect class="commit-label-bkg" x="439.2578125" y="13.5" width="41.484375" height="15"/><text x="441.2578125" y="25" class="commit-label">9a07a97</text></g></g><style>@import url("https://cdnjs.cloudflare.com/ajax/libs/font-awesome/6.4.0/css/all.min.css");</style></svg>